PathFileType	4	(X/Y/Z)	 s01c0001.trc
DataRate	CameraRate	NumFrames	NumMarkers	Units	OrigDataRate	OrigDataStartFrame	OrigNumFrames
200	200	4	49	mm	200	1501	2000
Frame#	Time	racr			lacr			c7			jug			rlel			rdr			llel			ldr			s2			lic			ric			lasi			rasi			rpsi			lpsi			rgt			lgt			rth1			rth2			rth3			rth4			rlfc			rmfc			rsh1			rsh2			rsh3			rsh4			rlmal			rmmal			rcal			rtoe			rmt5			rmt1			lth1			lth2			lth4			lth3			llfc			lmfc			lsh1			lsh2			lsh3			lsh4			llmal			lmmal			lcal			ltoe			lmt1			lmt5			
		X1	Y1	Z1	X2	Y2	Z2	X3	Y3	Z3	X4	Y4	Z4	X5	Y5	Z5	X6	Y6	Z6	X7	Y7	Z7	X8	Y8	Z8	X9	Y9	Z9	X10	Y10	Z10	X11	Y11	Z11	X12	Y12	Z12	X13	Y13	Z13	X14	Y14	Z14	X15	Y15	Z15	X16	Y16	Z16	X17	Y17	Z17	X18	Y18	Z18	X19	Y19	Z19	X20	Y20	Z20	X21	Y21	Z21	X22	Y22	Z22	X23	Y23	Z23	X24	Y24	Z24	X25	Y25	Z25	X26	Y26	Z26	X27	Y27	Z27	X28	Y28	Z28	X29	Y29	Z29	X30	Y30	Z30	X31	Y31	Z31	X32	Y32	Z32	X33	Y33	Z33	X34	Y34	Z34	X35	Y35	Z35	X36	Y36	Z36	X37	Y37	Z37	X38	Y38	Z38	X39	Y39	Z39	X40	Y40	Z40	X41	Y41	Z41	X42	Y42	Z42	X43	Y43	Z43	X44	Y44	Z44	X45	Y45	Z45	X46	Y46	Z46	X47	Y47	Z47	X48	Y48	Z48	X49	Y49	Z49	
1501	7.5050	503.003151	1501.661802	-347.879170	310.492729	1482.710652	-686.306775	383.966523	1530.868245	-495.692803	513.856812	1459.098684	-566.263159	563.856853	1253.997473	-183.519043	723.235180	1057.971181	-72.724368	212.490552	1210.038983	-779.699434	216.188460	1003.146870	-949.908896	342.801525	1020.502228	-459.078810	370.914439	1089.821718	-676.829668	547.343927	1061.471719	-392.623541	422.689085	1025.501948	-679.269406	575.457482	1013.940834	-444.982402	385.248545	1050.997783	-421.712870	329.638000	1054.532649	-511.682876	518.859082	927.914200	-358.928390	338.869609	922.718360	-682.020602	539.541759	808.492356	-349.047722	544.657484	726.418565	-359.039007	537.818886	636.902382	-374.325624	582.307800	730.105857	-398.745473	506.637697	517.151996	-387.288772	446.108306	493.130124	-475.876617	491.953215	401.640228	-338.337143	486.423116	317.336661	-343.484287	470.333534	229.189666	-352.489154	511.228787	317.010441	-399.895284	447.316077	99.083774	-371.426246	447.679027	122.430325	-459.236596	393.729104	67.864202	-415.827958	651.949758	91.558386	-492.331218	581.518481	50.462785	-391.212574	561.332653	62.196734	-504.577921	324.473429	803.029023	-688.830810	342.342490	717.053511	-688.978245	392.264138	727.096666	-708.455098	358.276793	633.856434	-676.470336	365.824974	520.330599	-653.438582	393.636466	489.516229	-546.317936	306.952598	410.204132	-665.903589	304.869888	323.533202	-657.104737	305.508476	238.610822	-639.261266	367.553389	322.784815	-654.845005	317.515471	105.001300	-619.876392	382.836209	116.200265	-558.610469	304.878468	64.573417	-560.182642	543.508127	96.795739	-692.371754	498.535120	65.669258	-617.244595	426.230722	57.321390	-707.083144	
1502	7.5100	503.013509	1501.670422	-347.910326	310.497894	1482.703591	-686.341311	383.998932	1530.855041	-495.696094	513.872552	1459.104239	-566.314565	563.882870	1254.020319	-183.553908	723.278261	1058.016882	-72.732736	212.509894	1210.033536	-779.738222	216.226351	1003.127686	-949.945072	342.822837	1020.499482	-459.094734	370.930100	1089.823057	-676.844841	547.358036	1061.467745	-392.633838	422.715869	1025.500215	-679.285547	575.467988	1013.940555	-444.987256	385.273848	1050.984621	-421.723679	329.649808	1054.525878	-511.696544	518.890287	927.910164	-358.942578	338.871666	922.726731	-682.025013	539.534756	808.491801	-349.047236	544.676088	726.409115	-359.068223	537.807893	636.909845	-374.316525	582.304478	730.094011	-398.760794	506.643619	517.136274	-387.280750	446.089100	493.118292	-475.864919	491.963533	401.649782	-338.334222	486.417564	317.344002	-343.476866	470.330217	229.190718	-352.489554	511.204943	317.014804	-399.895851	447.305732	99.093245	-371.436133	447.676843	122.434598	-459.238856	393.719160	67.869931	-415.826494	651.950119	91.560140	-492.329961	581.508592	50.471606	-391.196117	561.332843	62.199117	-504.581102	324.476329	803.036438	-688.835634	342.351242	717.053145	-688.982035	392.269756	727.095756	-708.463150	358.272864	633.856165	-676.470239	365.808424	520.335053	-653.457129	393.646386	489.501511	-546.346409	306.952641	410.210006	-665.913549	304.870796	323.526027	-657.099665	305.512044	238.612518	-639.261997	367.549857	322.785144	-654.852634	317.502043	105.003828	-619.872851	382.762477	116.266601	-558.536914	304.868853	64.563857	-560.195410	543.500473	96.804070	-692.372961	498.527219	65.677926	-617.243128	426.111395	57.405901	-707.062709	
1503	7.5150	503.023976	1501.678016	-347.936913	310.492192	1482.674978	-686.352154	383.999609	1530.872752	-495.692067	513.886805	1459.095664	-566.328703	563.927516	1254.027559	-183.572032	723.309955	1058.044372	-72.748620	212.529733	1210.009510	-779.774890	216.271058	1003.088103	-949.963370	342.835861	1020.494149	-459.115893	370.947510	1089.809070	-676.848875	547.374925	1061.480610	-392.664446	422.713763	1025.508561	-679.300087	575.471434	1013.930384	-444.995646	385.280918	1050.981857	-421.752187	329.682542	1054.524713	-511.703956	518.894132	927.907770	-358.961637	338.882646	922.723277	-682.038898	539.540876	808.498219	-349.049718	544.658307	726.437124	-359.029466	537.807544	636.891985	-374.328880	582.302851	730.090377	-398.754017	506.611738	517.144856	-387.280671	446.098588	493.140156	-475.879741	491.939125	401.648015	-338.334101	486.405436	317.353372	-343.494148	470.302764	229.194814	-352.484311	511.205726	317.012276	-399.884614	447.321653	99.092087	-371.431592	447.674766	122.433576	-459.235595	393.722607	67.876430	-415.836593	651.951374	91.557721	-492.324951	581.481870	50.466268	-391.181072	561.332844	62.199030	-504.581353	324.481475	803.035807	-688.846969	342.354245	717.056476	-688.993017	392.271901	727.092888	-708.468810	358.273954	633.860276	-676.481211	365.803205	520.337522	-653.466679	393.642449	489.494874	-546.335452	306.959467	410.202974	-665.918822	304.871540	323.527392	-657.099443	305.506944	238.617352	-639.259236	367.548277	322.783980	-654.858459	317.508897	105.016112	-619.871362	382.767193	116.267450	-558.543014	304.880611	64.579926	-560.184008	543.500480	96.804074	-692.372950	498.532656	65.683721	-617.240931	426.227442	57.316645	-707.085230	
1504	7.5200	503.040805	1501.693069	-347.967672	310.532372	1482.665168	-686.403930	384.005979	1530.863232	-495.749415	513.878386	1459.080198	-566.358115	563.955335	1254.043569	-183.594534	723.348047	1058.084776	-72.767209	212.557531	1209.995759	-779.796483	216.295578	1003.078203	-949.993507	342.861696	1020.485744	-459.131764	370.947121	1089.814726	-676.881376	547.390352	1061.473252	-392.676154	422.720040	1025.498482	-679.306260	575.485461	1013.925115	-445.008671	385.297767	1051.005575	-421.749398	329.685124	1054.534048	-511.710676	518.902912	927.898614	-358.973539	338.887350	922.717409	-682.047594	539.546528	808.491012	-349.054019	544.665839	726.417470	-359.048817	537.798654	636.877888	-374.317054	582.321589	730.083949	-398.752000	506.631987	517.141141	-387.281812	446.109709	493.130872	-475.879044	491.940800	401.630181	-338.333264	486.410200	317.357206	-343.470877	470.304332	229.199438	-352.481439	511.206700	317.010752	-399.881636	447.303420	99.084719	-371.427108	447.673261	122.431552	-459.235391	393.722589	67.876433	-415.836596	651.949488	91.559220	-492.327910	581.508576	50.471599	-391.196126	561.331273	62.199920	-504.581677	324.491491	803.032528	-688.856632	342.358535	717.053993	-688.988767	392.272590	727.090056	-708.478641	358.290940	633.852524	-676.480581	365.808633	520.335179	-653.455341	393.641427	489.495702	-546.335244	306.947415	410.207678	-665.921309	304.860123	323.529307	-657.113112	305.505264	238.619258	-639.260944	367.547060	322.783408	-654.862945	317.494158	105.004850	-619.872250	382.821746	116.192232	-558.595494	304.878443	64.573397	-560.182651	543.494564	96.797033	-692.376290	498.533065	65.668326	-617.249602	426.130363	57.387976	-707.076115	
